# xmcd
#
# Track frame offsets:
# 150
# 12599
# 25044
# 37964
# 49697
# 62122
# 74069
# 84997
# 95880
# 108280
# 121535
# 134694
# 145810
# 157512
# 169853
# 181850
# 194232
# 206078
# 217937
# 230505
#
# Disc length: 3225 seconds
#
#
# Revision: 0
# Processed by: cddbd v1.5.2PL0 Copyright (c) Steve Scherf et al.
# Submitted via: FreeRIP 2.96 
#
DISCID=1a0c9714
DTITLE=Hank Williams - Legends of Country Music - CD1
DYEAR=2008
DGENRE=Country
TTITLE0=Move It On Over
TTITLE1=Honky Tonkin'
TTITLE2=I'm A Long Gone Daddy
TTITLE3=A Mansion On The Hill
TTITLE4=Lovesick Blues
TTITLE5=Long Gone Lonesome Blues
TTITLE6=Why Don't You Love Me?
TTITLE7=Moanin' The Blues
TTITLE8=Cold, Cold Heart
TTITLE9=Hey, Good Lookin'
TTITLE10=Jambalaya (On The Bayou)
TTITLE11=I'll Never Get Out Of This World Alive
TTITLE12=Kaw-liga
TTITLE13=Your Cheatin' Heart
TTITLE14=Take These Chains From My Heart
TTITLE15=Half As Much
TTITLE16=Settin' The Woods On Fire
TTITLE17=You Win Again
TTITLE18=Rootie Tootie
TTITLE19=My Bucket's Got A Hole In It
EXTD=
EXTT0=
EXTT1=
EXTT2=
EXTT3=
EXTT4=
EXTT5=
EXTT6=
EXTT7=
EXTT8=
EXTT9=
EXTT10=
EXTT11=
EXTT12=
EXTT13=
EXTT14=
EXTT15=
EXTT16=
EXTT17=
EXTT18=
EXTT19=
PLAYORDER=
